<?xml version="1.0" encoding="UTF-8"?>
<svg version="1.1" xmlns="http://www.w3.org/2000/svg" width="32" height="32">
<path d="M0 0 C2.625 -0.1875 2.625 -0.1875 5 0 C5 0.66 5 1.32 5 2 C6.258125 1.938125 7.51625 1.87625 8.8125 1.8125 C12.71658717 1.82629536 12.71658717 1.82629536 14.9375 3.1875 C16.24912987 5.42498625 16.65447612 7.44312331 17 10 C17.99 10.33 18.98 10.66 20 11 C20 12.98 20 14.96 20 17 C19.34 17 18.68 17 18 17 C18.04125 18.27875 18.0825 19.5575 18.125 20.875 C18.1953125 23.0546875 18.1953125 23.0546875 18 25 C16 27 16 27 13 27.9375 C9.72778248 28.75927075 9.72778248 28.75927075 8 32 C5.375 32.1875 5.375 32.1875 3 32 C2.67 31.34 2.34 30.68 2 30 C0.329375 30.061875 0.329375 30.061875 -1.375 30.125 C-5 30 -5 30 -7 28 C-7.309375 27.01 -7.61875 26.02 -7.9375 25 C-8.75927075 21.72778248 -8.75927075 21.72778248 -12 20 C-12.1875 17.375 -12.1875 17.375 -12 15 C-11.34 15 -10.68 15 -10 15 C-10.0928125 13.1128125 -10.0928125 13.1128125 -10.1875 11.1875 C-10.17370464 7.28341283 -10.17370464 7.28341283 -8.8125 5.0625 C-7 4 -7 4 -4.4375 3.5 C-1.64137117 3.2243063 -1.64137117 3.2243063 0 0 Z M-3 9 C-5.11890181 12.17835272 -5.5434002 14.19479215 -5.4453125 17.9921875 C-5.08185581 20.39066397 -5.08185581 20.39066397 -2.375 23 C1.30066901 25.17817423 2.83198845 25.79812987 7 25 C9.69990662 23.20006226 11.5418865 21.916227 13 19 C13.06950541 17.45976004 13.08452357 15.91665012 13.0625 14.375 C13.05347656 13.55773437 13.04445313 12.74046875 13.03515625 11.8984375 C13.02355469 11.27195312 13.01195313 10.64546875 13 10 C11.9275 9.34 10.855 8.68 9.75 8 C8.84507813 7.443125 8.84507813 7.443125 7.921875 6.875 C3.48225774 4.85371084 0.65535755 6.40277227 -3 9 Z " fill="#DA722F" transform="translate(12,0)"/>
</svg>
